<svg width="360" height="640" viewBox="0 0 360 640" fill="none" xmlns="http://www.w3.org/2000/svg">
<g clip-path="url(#clip0)">
<rect width="360" height="640" fill="#CDF2ED"/>
<rect x="429" y="-27" width="390" height="429" transform="rotate(90 429 -27)" fill="#3A393E"/>
<g style="mix-blend-mode:lighten">
<rect y="386" width="360" height="87" transform="scale(1 -1)" fill="#979799"/>
<rect y="386" width="360" height="87" transform="scale(1 -1)" fill="url(#paint0_linear)"/>
</g>
<path d="M20.3262 266.535C20.3262 262.883 20.5254 259.529 20.9238 256.475C21.3887 253.354 22.0527 250 22.916 246.414H42.9375V254.682C42.9375 259.264 43.2031 263.314 43.7344 266.834C44.332 270.354 45.2617 273.342 46.5234 275.799C47.8516 278.189 49.5781 280.016 51.7031 281.277C53.8945 282.473 56.5508 283.07 59.6719 283.07C64.5859 283.07 68.3379 281.742 70.9277 279.086C73.5176 276.363 74.8125 272.412 74.8125 267.232C74.8125 264.576 74.6133 262.152 74.2148 259.961C73.8828 257.703 73.252 255.479 72.3223 253.287C71.459 251.096 70.2637 248.805 68.7363 246.414C67.209 243.957 65.25 241.234 62.8594 238.246L35.9648 206.271C31.1836 200.162 27.498 194.02 24.9082 187.844C22.3184 181.602 21.0234 174.961 21.0234 167.922C21.0234 162.277 21.8867 157.098 23.6133 152.383C25.4062 147.668 27.9629 143.617 31.2832 140.23C34.6035 136.777 38.6875 134.121 43.5352 132.262C48.4492 130.336 53.9941 129.373 60.1699 129.373C67.6738 129.373 73.916 130.436 78.8965 132.561C83.9434 134.686 87.9609 137.475 90.9492 140.928C93.9375 144.381 96.0293 148.266 97.2246 152.582C98.4863 156.832 99.1172 161.115 99.1172 165.432C99.1172 169.084 98.8184 172.471 98.2207 175.592C97.6895 178.646 97.0586 182.033 96.3281 185.752H76.4062V177.684C76.4062 168.652 75.1113 161.746 72.5215 156.965C69.9316 152.117 65.7148 149.693 59.8711 149.693C55.0234 149.693 51.4043 151.055 49.0137 153.777C46.623 156.434 45.4277 160.02 45.4277 164.535C45.4277 166.926 45.5938 169.084 45.9258 171.01C46.3242 172.936 46.8555 174.729 47.5195 176.389C48.25 177.982 49.1133 179.543 50.1094 181.07C51.1055 182.598 52.2344 184.191 53.4961 185.852L83.4785 222.109C88.9238 229.215 93.1074 236.055 96.0293 242.629C98.9512 249.137 100.412 256.043 100.412 263.348C100.412 269.391 99.4492 274.836 97.5234 279.684C95.6641 284.531 92.9746 288.648 89.4551 292.035C85.9355 295.422 81.6855 298.045 76.7051 299.904C71.7246 301.697 66.1133 302.594 59.8711 302.594C52.168 302.594 45.7598 301.564 40.6465 299.506C35.5996 297.447 31.5488 294.725 28.4941 291.338C25.5059 287.951 23.3809 284.1 22.1191 279.783C20.9238 275.467 20.3262 271.051 20.3262 266.535ZM140.854 130.867H170.537L202.014 301H175.916L171.234 270.52H140.156L135.674 301H109.477L140.854 130.867ZM168.246 251.096L156.293 166.328H155.197L143.145 251.096H168.246ZM218.549 130.867H252.217L268.553 196.709C270.279 204.014 271.641 210.986 272.637 217.627C273.633 224.201 274.596 230.41 275.525 236.254H276.322C277.252 230.41 278.215 224.201 279.211 217.627C280.207 210.986 281.568 204.014 283.295 196.709L300.129 130.867H333.1V301H308.994V244.721C308.994 236.088 309.061 227.787 309.193 219.818C309.393 211.85 309.625 204.545 309.891 197.904C310.156 191.197 310.455 185.287 310.787 180.174C311.119 175.061 311.418 171.01 311.684 168.021H309.791L284.092 279.086H267.756L241.857 168.021H239.965C240.23 171.01 240.529 175.061 240.861 180.174C241.193 185.287 241.492 191.197 241.758 197.904C242.023 204.545 242.223 211.85 242.355 219.818C242.555 227.787 242.654 236.088 242.654 244.721V301H218.549V130.867Z" fill="url(#paint1_linear)"/>
<path d="M79.4531 238.953H88.5586V291.828H100.969V299H79.4531V238.953ZM106.523 238.953H115.699V282.969C115.699 284.844 115.793 286.402 115.98 287.645C116.168 288.887 116.461 289.883 116.859 290.633C117.281 291.359 117.809 291.887 118.441 292.215C119.098 292.52 119.871 292.672 120.762 292.672C121.652 292.672 122.426 292.52 123.082 292.215C123.762 291.887 124.312 291.359 124.734 290.633C125.18 289.883 125.508 288.887 125.719 287.645C125.953 286.402 126.07 284.844 126.07 282.969V238.953H135.141V280.543C135.141 283.473 134.906 285.98 134.438 288.066C133.969 290.152 133.348 291.898 132.574 293.305C131.801 294.711 130.91 295.824 129.902 296.645C128.918 297.465 127.887 298.098 126.809 298.543C125.754 298.965 124.699 299.234 123.645 299.352C122.59 299.469 121.629 299.527 120.762 299.527C119.895 299.527 118.934 299.469 117.879 299.352C116.848 299.234 115.805 298.965 114.75 298.543C113.695 298.098 112.676 297.465 111.691 296.645C110.707 295.824 109.828 294.711 109.055 293.305C108.281 291.898 107.66 290.164 107.191 288.102C106.746 286.016 106.523 283.496 106.523 280.543V238.953ZM145.195 238.953H154.652C156.082 238.953 157.559 239 159.082 239.094C160.629 239.164 162.129 239.41 163.582 239.832C165.059 240.254 166.441 240.91 167.73 241.801C169.043 242.668 170.191 243.898 171.176 245.492C172.16 247.062 172.934 249.055 173.496 251.469C174.082 253.859 174.375 256.789 174.375 260.258V277.695C174.375 281.164 174.082 284.105 173.496 286.52C172.934 288.934 172.16 290.926 171.176 292.496C170.191 294.066 169.043 295.297 167.73 296.188C166.441 297.055 165.059 297.699 163.582 298.121C162.129 298.543 160.629 298.801 159.082 298.895C157.559 298.965 156.082 299 154.652 299H145.195V238.953ZM156.621 292.637C158.262 292.637 159.609 292.426 160.664 292.004C161.742 291.582 162.586 290.844 163.195 289.789C163.828 288.711 164.262 287.258 164.496 285.43C164.73 283.578 164.848 281.246 164.848 278.434V259.801C164.848 256.988 164.73 254.668 164.496 252.84C164.262 250.988 163.828 249.535 163.195 248.48C162.586 247.402 161.742 246.652 160.664 246.23C159.609 245.809 158.262 245.598 156.621 245.598H154.301V292.637H156.621ZM178.699 238.953H187.418L191.461 275.234L191.918 283.707H192.797L193.641 274.18L200.109 238.953H207.387L213.574 274.18L214.277 283.707H215.191L215.613 275.234L219.305 238.953H228.059L219.656 299H210.41L205.453 270.137L203.906 257.586H203.203L201.691 270.137L196.488 299H187.348L178.699 238.953ZM234.562 238.953H243.668V299H234.562V238.953ZM266.098 299.562C265.395 299.562 264.574 299.48 263.637 299.316C262.699 299.176 261.727 298.859 260.719 298.367C259.734 297.875 258.762 297.184 257.801 296.293C256.84 295.379 255.973 294.184 255.199 292.707C254.449 291.207 253.84 289.379 253.371 287.223C252.902 285.043 252.668 282.453 252.668 279.453V258.184C252.668 255.16 252.914 252.582 253.406 250.449C253.898 248.293 254.555 246.488 255.375 245.035C256.195 243.559 257.133 242.387 258.188 241.52C259.266 240.652 260.379 239.996 261.527 239.551C262.676 239.082 263.812 238.777 264.938 238.637C266.062 238.496 267.105 238.426 268.066 238.426C270.504 238.426 272.555 238.766 274.219 239.445C275.906 240.102 277.266 241.016 278.297 242.188C279.352 243.336 280.102 244.684 280.547 246.23C281.016 247.777 281.25 249.418 281.25 251.152C281.25 252.441 281.168 253.637 281.004 254.738C280.863 255.816 280.664 257.012 280.406 258.324H273.129V255.477C273.129 248.891 271.359 245.598 267.82 245.598C266.859 245.598 266.027 245.762 265.324 246.09C264.621 246.418 264.035 246.98 263.566 247.777C263.098 248.551 262.746 249.582 262.512 250.871C262.301 252.16 262.195 253.766 262.195 255.688V282.898C262.195 284.773 262.301 286.332 262.512 287.574C262.746 288.816 263.086 289.812 263.531 290.562C264 291.312 264.574 291.852 265.254 292.18C265.957 292.484 266.789 292.637 267.75 292.637C268.758 292.637 269.625 292.379 270.352 291.863C271.078 291.324 271.676 290.598 272.145 289.684C272.613 288.77 272.953 287.691 273.164 286.449C273.398 285.207 273.516 283.859 273.516 282.406V274.566H268.84V268.59H282.375V299H276.328L275.344 293.305C274.195 295.531 272.871 297.137 271.371 298.121C269.895 299.082 268.137 299.562 266.098 299.562Z" fill="#94E6DD"/>
<rect y="363" width="360" height="64.9999" transform="scale(1 -1)" fill="#94E5DD"/>
<path d="M260.078 391.645H265.025L270.271 420H265.922L265.142 414.92H259.962L259.215 420H254.849L260.078 391.645ZM264.644 411.683L262.651 397.555H262.469L260.46 411.683H264.644ZM272.762 389.802H276.962V395.895L276.829 398.916L276.846 398.933C277.034 398.667 277.25 398.412 277.493 398.169C277.748 397.925 278.03 397.71 278.34 397.521C278.661 397.322 279.009 397.167 279.386 397.057C279.773 396.946 280.194 396.891 280.647 396.891C280.88 396.891 281.157 396.913 281.478 396.957C281.81 397.001 282.147 397.112 282.49 397.289C282.844 397.466 283.193 397.732 283.536 398.086C283.89 398.429 284.2 398.905 284.466 399.514C284.743 400.122 284.964 400.881 285.13 401.788C285.307 402.696 285.396 403.797 285.396 405.092V412.015C285.396 413.31 285.307 414.411 285.13 415.318C284.964 416.226 284.743 416.99 284.466 417.609C284.189 418.218 283.874 418.7 283.52 419.054C283.165 419.408 282.806 419.674 282.44 419.851C282.075 420.028 281.721 420.138 281.378 420.183C281.035 420.238 280.736 420.266 280.481 420.266C279.95 420.266 279.469 420.199 279.037 420.066C278.617 419.934 278.24 419.757 277.908 419.535C277.587 419.303 277.299 419.043 277.045 418.755C276.801 418.467 276.586 418.174 276.397 417.875L276.049 420H272.762V389.802ZM276.962 415.368C277.05 415.578 277.156 415.783 277.277 415.982C277.41 416.182 277.56 416.359 277.726 416.514C277.892 416.658 278.085 416.779 278.307 416.879C278.528 416.967 278.777 417.012 279.054 417.012C279.364 417.012 279.646 416.956 279.9 416.846C280.155 416.724 280.376 416.514 280.564 416.215C280.753 415.905 280.896 415.479 280.996 414.937C281.107 414.394 281.162 413.697 281.162 412.845V404.096C281.162 403.243 281.107 402.552 280.996 402.021C280.896 401.478 280.753 401.052 280.564 400.742C280.387 400.432 280.172 400.222 279.917 400.111C279.662 400.001 279.38 399.945 279.07 399.945C278.55 399.945 278.118 400.1 277.775 400.41C277.443 400.709 277.172 401.069 276.962 401.489V415.368ZM294.958 420.249C294.471 420.249 293.973 420.21 293.464 420.133C292.966 420.055 292.479 419.895 292.003 419.651C291.538 419.408 291.095 419.059 290.675 418.605C290.265 418.152 289.906 417.554 289.596 416.812C289.286 416.071 289.042 415.158 288.865 414.073C288.688 412.989 288.6 411.694 288.6 410.188V406.603C288.6 405.119 288.688 403.852 288.865 402.801C289.053 401.738 289.302 400.847 289.612 400.128C289.933 399.409 290.304 398.839 290.725 398.418C291.145 397.986 291.588 397.66 292.053 397.438C292.529 397.206 293.016 397.057 293.514 396.99C294.012 396.913 294.499 396.874 294.975 396.874C295.428 396.874 295.899 396.907 296.386 396.974C296.873 397.04 297.349 397.184 297.813 397.405C298.278 397.616 298.715 397.937 299.125 398.368C299.546 398.789 299.911 399.359 300.221 400.078C300.542 400.798 300.791 401.694 300.968 402.768C301.156 403.83 301.25 405.108 301.25 406.603V410.188C301.25 411.672 301.156 412.95 300.968 414.023C300.78 415.097 300.525 416.005 300.204 416.746C299.883 417.488 299.512 418.091 299.092 418.556C298.671 419.009 298.229 419.364 297.764 419.618C297.299 419.873 296.823 420.039 296.336 420.116C295.86 420.205 295.401 420.249 294.958 420.249ZM294.991 417.012C295.368 417.012 295.683 416.918 295.938 416.729C296.203 416.53 296.413 416.209 296.568 415.767C296.734 415.324 296.851 414.743 296.917 414.023C296.994 413.293 297.033 412.391 297.033 411.317V405.689C297.033 404.616 296.994 403.714 296.917 402.983C296.851 402.253 296.734 401.666 296.568 401.224C296.413 400.77 296.203 400.443 295.938 400.244C295.683 400.045 295.368 399.945 294.991 399.945C294.593 399.945 294.255 400.045 293.979 400.244C293.713 400.443 293.492 400.77 293.314 401.224C293.137 401.666 293.01 402.253 292.933 402.983C292.855 403.714 292.816 404.616 292.816 405.689V411.317C292.816 412.391 292.855 413.293 292.933 414.023C293.01 414.743 293.137 415.324 293.314 415.767C293.492 416.209 293.713 416.53 293.979 416.729C294.255 416.918 294.593 417.012 294.991 417.012ZM305.002 397.14H309.202V414.322C309.202 415.329 309.357 416.032 309.667 416.431C309.977 416.818 310.431 417.012 311.028 417.012C311.449 417.012 311.858 416.896 312.257 416.663C312.655 416.431 313.015 416.099 313.336 415.667V397.14H317.536V420H314.332L313.917 417.56H313.9C313.568 418.08 313.214 418.517 312.838 418.871C312.473 419.214 312.085 419.491 311.676 419.701C311.277 419.9 310.868 420.044 310.447 420.133C310.027 420.221 309.606 420.266 309.186 420.266C307.846 420.266 306.812 419.801 306.081 418.871C305.362 417.941 305.002 416.536 305.002 414.654V397.14ZM322.417 400.128H320.641V397.14H322.782L323.629 391.213H326.617V397.14H330.27V400.128H326.617V414.671C326.617 415.169 326.661 415.573 326.75 415.883C326.85 416.182 326.982 416.42 327.148 416.597C327.314 416.763 327.508 416.873 327.729 416.929C327.951 416.984 328.183 417.012 328.427 417.012C328.836 417.012 329.196 416.962 329.506 416.862C329.827 416.763 330.131 416.624 330.419 416.447V418.771C330.175 419.07 329.91 419.314 329.622 419.502C329.345 419.69 329.058 419.845 328.759 419.967C328.46 420.077 328.156 420.155 327.846 420.199C327.536 420.243 327.231 420.266 326.933 420.266C326.346 420.266 325.782 420.188 325.239 420.033C324.697 419.878 324.215 419.585 323.795 419.153C323.374 418.711 323.037 418.102 322.782 417.327C322.539 416.552 322.417 415.545 322.417 414.306V400.128Z" fill="#979799"/>
<path d="M221.369 508.256C221.369 507.647 221.402 507.088 221.469 506.579C221.546 506.059 221.657 505.5 221.801 504.902H225.138V506.28C225.138 507.044 225.182 507.719 225.271 508.306C225.37 508.892 225.525 509.39 225.735 509.8C225.957 510.198 226.244 510.503 226.599 510.713C226.964 510.912 227.407 511.012 227.927 511.012C228.746 511.012 229.371 510.79 229.803 510.348C230.234 509.894 230.45 509.235 230.45 508.372C230.45 507.929 230.417 507.525 230.351 507.16C230.295 506.784 230.19 506.413 230.035 506.048C229.891 505.683 229.692 505.301 229.438 504.902C229.183 504.493 228.856 504.039 228.458 503.541L223.976 498.212C223.179 497.194 222.564 496.17 222.133 495.141C221.701 494.1 221.485 492.993 221.485 491.82C221.485 490.88 221.629 490.016 221.917 489.23C222.216 488.445 222.642 487.77 223.195 487.205C223.749 486.63 224.429 486.187 225.237 485.877C226.056 485.556 226.98 485.396 228.01 485.396C229.26 485.396 230.301 485.573 231.131 485.927C231.972 486.281 232.642 486.746 233.14 487.321C233.638 487.897 233.986 488.544 234.186 489.264C234.396 489.972 234.501 490.686 234.501 491.405C234.501 492.014 234.451 492.578 234.352 493.099C234.263 493.608 234.158 494.172 234.036 494.792H230.716V493.447C230.716 491.942 230.5 490.791 230.068 489.994C229.637 489.186 228.934 488.782 227.96 488.782C227.152 488.782 226.549 489.009 226.15 489.463C225.752 489.906 225.553 490.503 225.553 491.256C225.553 491.654 225.58 492.014 225.636 492.335C225.702 492.656 225.791 492.955 225.901 493.231C226.023 493.497 226.167 493.757 226.333 494.012C226.499 494.266 226.687 494.532 226.897 494.809L231.895 500.852C232.802 502.036 233.499 503.176 233.986 504.271C234.473 505.356 234.717 506.507 234.717 507.725C234.717 508.732 234.556 509.639 234.235 510.447C233.925 511.255 233.477 511.941 232.891 512.506C232.304 513.07 231.596 513.507 230.766 513.817C229.936 514.116 229 514.266 227.96 514.266C226.676 514.266 225.608 514.094 224.756 513.751C223.915 513.408 223.24 512.954 222.73 512.39C222.232 511.825 221.878 511.183 221.668 510.464C221.469 509.744 221.369 509.008 221.369 508.256ZM238.137 483.802H242.337V501.184H242.47L247.052 491.14H251.086L246.006 501.599L251.567 514H247.284L242.47 502.661H242.337V514H238.137V483.802ZM255.95 487.869C255.175 487.869 254.561 487.637 254.107 487.172C253.665 486.707 253.443 486.026 253.443 485.13C253.443 484.632 253.499 484.217 253.609 483.885C253.731 483.542 253.897 483.271 254.107 483.071C254.329 482.861 254.594 482.712 254.904 482.623C255.214 482.523 255.568 482.474 255.967 482.474C256.797 482.474 257.428 482.684 257.859 483.104C258.291 483.525 258.507 484.2 258.507 485.13C258.507 485.993 258.285 486.668 257.843 487.155C257.411 487.631 256.78 487.869 255.95 487.869ZM253.775 491.14H257.976V514H253.775V491.14ZM262.441 483.802H266.642V514H262.441V483.802ZM271.107 483.802H275.308V514H271.107V483.802ZM286.148 508.256C286.148 507.647 286.182 507.088 286.248 506.579C286.326 506.059 286.436 505.5 286.58 504.902H289.917V506.28C289.917 507.044 289.961 507.719 290.05 508.306C290.149 508.892 290.304 509.39 290.515 509.8C290.736 510.198 291.024 510.503 291.378 510.713C291.743 510.912 292.186 511.012 292.706 511.012C293.525 511.012 294.15 510.79 294.582 510.348C295.014 509.894 295.229 509.235 295.229 508.372C295.229 507.929 295.196 507.525 295.13 507.16C295.075 506.784 294.969 506.413 294.814 506.048C294.671 505.683 294.471 505.301 294.217 504.902C293.962 504.493 293.636 504.039 293.237 503.541L288.755 498.212C287.958 497.194 287.344 496.17 286.912 495.141C286.48 494.1 286.265 492.993 286.265 491.82C286.265 490.88 286.409 490.016 286.696 489.23C286.995 488.445 287.421 487.77 287.975 487.205C288.528 486.63 289.209 486.187 290.017 485.877C290.836 485.556 291.76 485.396 292.789 485.396C294.04 485.396 295.08 485.573 295.91 485.927C296.751 486.281 297.421 486.746 297.919 487.321C298.417 487.897 298.766 488.544 298.965 489.264C299.175 489.972 299.28 490.686 299.28 491.405C299.28 492.014 299.23 492.578 299.131 493.099C299.042 493.608 298.937 494.172 298.815 494.792H295.495V493.447C295.495 491.942 295.279 490.791 294.848 489.994C294.416 489.186 293.713 488.782 292.739 488.782C291.931 488.782 291.328 489.009 290.93 489.463C290.531 489.906 290.332 490.503 290.332 491.256C290.332 491.654 290.36 492.014 290.415 492.335C290.481 492.656 290.57 492.955 290.681 493.231C290.802 493.497 290.946 493.757 291.112 494.012C291.278 494.266 291.466 494.532 291.677 494.809L296.674 500.852C297.581 502.036 298.279 503.176 298.766 504.271C299.253 505.356 299.496 506.507 299.496 507.725C299.496 508.732 299.336 509.639 299.015 510.447C298.705 511.255 298.257 511.941 297.67 512.506C297.083 513.07 296.375 513.507 295.545 513.817C294.715 514.116 293.78 514.266 292.739 514.266C291.455 514.266 290.387 514.094 289.535 513.751C288.694 513.408 288.019 512.954 287.51 512.39C287.012 511.825 286.658 511.183 286.447 510.464C286.248 509.744 286.148 509.008 286.148 508.256ZM308.361 514.249C307.376 514.249 306.502 514.066 305.738 513.701C304.986 513.336 304.349 512.766 303.829 511.991C303.309 511.216 302.916 510.226 302.65 509.02C302.385 507.802 302.252 506.341 302.252 504.637V500.32C302.252 498.87 302.357 497.631 302.567 496.602C302.789 495.561 303.071 494.692 303.414 493.995C303.768 493.287 304.172 492.728 304.626 492.318C305.091 491.909 305.567 491.599 306.054 491.389C306.541 491.167 307.022 491.029 307.498 490.974C307.985 490.907 308.433 490.874 308.843 490.874C309.595 490.874 310.32 490.99 311.018 491.223C311.715 491.444 312.329 491.831 312.86 492.385C313.392 492.927 313.812 493.658 314.122 494.576C314.443 495.495 314.604 496.64 314.604 498.013C314.604 498.478 314.587 498.948 314.554 499.424C314.532 499.9 314.498 500.37 314.454 500.835C314.41 501.289 314.349 501.731 314.271 502.163C314.205 502.595 314.133 502.993 314.056 503.358H306.469V505.683C306.469 506.679 306.507 507.52 306.585 508.206C306.662 508.881 306.79 509.429 306.967 509.85C307.155 510.259 307.404 510.558 307.714 510.746C308.035 510.923 308.433 511.012 308.909 511.012C309.164 511.012 309.413 510.962 309.656 510.862C309.9 510.752 310.11 510.575 310.287 510.331C310.475 510.088 310.625 509.767 310.735 509.368C310.846 508.959 310.901 508.455 310.901 507.857V507.144H314.404V508.023C314.404 510.193 313.884 511.775 312.844 512.771C311.814 513.757 310.32 514.249 308.361 514.249ZM310.686 500.536C310.697 500.414 310.708 500.254 310.719 500.055C310.73 499.844 310.735 499.629 310.735 499.407C310.746 499.186 310.752 498.97 310.752 498.76C310.752 498.538 310.752 498.35 310.752 498.195C310.752 496.69 310.575 495.605 310.221 494.941C309.867 494.277 309.341 493.945 308.644 493.945C308.278 493.945 307.957 494.034 307.681 494.211C307.404 494.377 307.177 494.665 307 495.074C306.823 495.473 306.69 496.004 306.602 496.668C306.513 497.332 306.469 498.157 306.469 499.142V500.536H310.686ZM318.638 494.128H316.861V491.14H319.003L319.85 485.213H322.838V491.14H326.49V494.128H322.838V508.671C322.838 509.169 322.882 509.573 322.971 509.883C323.07 510.182 323.203 510.42 323.369 510.597C323.535 510.763 323.729 510.873 323.95 510.929C324.172 510.984 324.404 511.012 324.647 511.012C325.057 511.012 325.417 510.962 325.727 510.862C326.048 510.763 326.352 510.624 326.64 510.447V512.771C326.396 513.07 326.131 513.314 325.843 513.502C325.566 513.69 325.278 513.845 324.979 513.967C324.681 514.077 324.376 514.155 324.066 514.199C323.757 514.243 323.452 514.266 323.153 514.266C322.567 514.266 322.002 514.188 321.46 514.033C320.918 513.878 320.436 513.585 320.016 513.153C319.595 512.711 319.257 512.102 319.003 511.327C318.759 510.552 318.638 509.545 318.638 508.306V494.128ZM328.482 509.219C328.482 508.721 328.527 508.239 328.615 507.774C328.715 507.31 328.809 506.939 328.897 506.662H331.853C331.853 507.492 331.891 508.189 331.969 508.754C332.057 509.307 332.196 509.75 332.384 510.082C332.572 510.414 332.821 510.652 333.131 510.796C333.452 510.94 333.839 511.012 334.293 511.012C334.924 511.012 335.383 510.835 335.671 510.48C335.959 510.126 336.103 509.717 336.103 509.252C336.103 509.008 336.069 508.776 336.003 508.555C335.937 508.333 335.842 508.112 335.721 507.891C335.599 507.658 335.45 507.426 335.272 507.193C335.095 506.961 334.896 506.706 334.675 506.43L331.604 502.811C331.205 502.312 330.818 501.809 330.441 501.3C330.076 500.78 329.75 500.248 329.462 499.706C329.185 499.153 328.958 498.577 328.781 497.979C328.615 497.382 328.532 496.751 328.532 496.087C328.532 495.201 328.682 494.432 328.98 493.779C329.29 493.126 329.7 492.584 330.209 492.152C330.729 491.721 331.327 491.4 332.002 491.189C332.677 490.979 333.391 490.874 334.144 490.874C334.974 490.874 335.721 490.974 336.385 491.173C337.049 491.372 337.619 491.671 338.095 492.069C338.571 492.468 338.936 492.966 339.19 493.563C339.445 494.15 339.572 494.836 339.572 495.622C339.572 496.153 339.522 496.668 339.423 497.166C339.334 497.664 339.246 498.09 339.157 498.444H336.252C336.241 497.692 336.208 497.033 336.152 496.469C336.097 495.904 335.992 495.439 335.837 495.074C335.693 494.698 335.488 494.416 335.223 494.228C334.968 494.039 334.631 493.945 334.21 493.945C333.845 493.945 333.54 494.006 333.297 494.128C333.053 494.239 332.854 494.388 332.699 494.576C332.555 494.764 332.45 494.975 332.384 495.207C332.328 495.439 332.301 495.677 332.301 495.921C332.301 496.452 332.428 496.945 332.683 497.398C332.937 497.852 333.275 498.345 333.695 498.876L337.049 502.811C337.292 503.109 337.575 503.475 337.896 503.906C338.216 504.327 338.521 504.797 338.809 505.317C339.096 505.826 339.34 506.385 339.539 506.994C339.738 507.603 339.838 508.239 339.838 508.903C339.838 509.711 339.711 510.447 339.456 511.111C339.201 511.764 338.825 512.323 338.327 512.788C337.829 513.253 337.215 513.613 336.484 513.867C335.765 514.122 334.94 514.249 334.011 514.249C333.247 514.249 332.528 514.166 331.853 514C331.177 513.823 330.591 513.541 330.093 513.153C329.595 512.755 329.202 512.235 328.914 511.593C328.626 510.951 328.482 510.16 328.482 509.219Z" fill="#979799"/>
<path d="M245.784 603.266C245.452 603.266 245.065 603.227 244.622 603.149C244.179 603.083 243.72 602.934 243.244 602.701C242.779 602.469 242.32 602.142 241.866 601.722C241.412 601.29 241.003 600.726 240.638 600.028C240.284 599.32 239.996 598.457 239.774 597.438C239.553 596.409 239.442 595.186 239.442 593.77V583.726C239.442 582.298 239.559 581.08 239.791 580.073C240.023 579.055 240.333 578.203 240.721 577.517C241.108 576.819 241.551 576.266 242.049 575.856C242.558 575.447 243.084 575.137 243.626 574.927C244.168 574.705 244.705 574.562 245.236 574.495C245.768 574.429 246.26 574.396 246.714 574.396C247.865 574.396 248.833 574.556 249.619 574.877C250.416 575.187 251.058 575.618 251.545 576.172C252.043 576.714 252.397 577.351 252.607 578.081C252.829 578.812 252.939 579.586 252.939 580.405C252.939 581.014 252.901 581.578 252.823 582.099C252.757 582.608 252.663 583.172 252.541 583.792H249.104V582.447C249.104 579.337 248.269 577.782 246.598 577.782C246.144 577.782 245.751 577.86 245.419 578.015C245.087 578.17 244.81 578.435 244.589 578.812C244.368 579.177 244.201 579.664 244.091 580.272C243.991 580.881 243.941 581.639 243.941 582.547V595.396C243.941 596.282 243.991 597.018 244.091 597.604C244.201 598.191 244.362 598.661 244.572 599.016C244.794 599.37 245.065 599.624 245.386 599.779C245.718 599.923 246.111 599.995 246.564 599.995C247.04 599.995 247.45 599.873 247.793 599.63C248.136 599.375 248.418 599.032 248.64 598.601C248.861 598.169 249.021 597.66 249.121 597.073C249.232 596.487 249.287 595.85 249.287 595.164V591.462H247.079V588.64H253.471V603H250.615L250.15 600.311C249.608 601.362 248.983 602.12 248.274 602.585C247.577 603.039 246.747 603.266 245.784 603.266ZM260.344 603.249C259.635 603.249 259.005 603.111 258.451 602.834C257.909 602.546 257.45 602.159 257.073 601.672C256.697 601.185 256.409 600.609 256.21 599.945C256.022 599.27 255.928 598.54 255.928 597.754C255.928 596.813 256.044 595.978 256.276 595.247C256.509 594.517 256.846 593.858 257.289 593.271C257.743 592.685 258.302 592.154 258.966 591.678C259.63 591.191 260.399 590.731 261.273 590.3C261.694 590.09 262.164 589.879 262.685 589.669C263.216 589.448 263.686 589.259 264.096 589.104V586.083C264.096 585.64 264.079 585.231 264.046 584.854C264.013 584.467 263.93 584.135 263.797 583.858C263.675 583.571 263.487 583.349 263.232 583.194C262.978 583.028 262.629 582.945 262.187 582.945C261.888 582.945 261.594 583.001 261.307 583.111C261.03 583.222 260.781 583.41 260.56 583.676C260.349 583.941 260.178 584.296 260.045 584.738C259.923 585.181 259.862 585.729 259.862 586.382V587.378H256.658C256.559 586.946 256.481 586.553 256.426 586.199C256.382 585.834 256.359 585.474 256.359 585.12C256.359 584.268 256.503 583.515 256.791 582.862C257.09 582.209 257.499 581.661 258.02 581.219C258.551 580.776 259.182 580.444 259.912 580.223C260.643 579.99 261.445 579.874 262.319 579.874C263.459 579.874 264.406 580.001 265.158 580.256C265.911 580.499 266.508 580.87 266.951 581.368C267.405 581.866 267.72 582.492 267.897 583.244C268.086 583.997 268.18 584.877 268.18 585.884V603H265.059L264.76 601.041C264.306 601.694 263.697 602.225 262.934 602.635C262.181 603.044 261.318 603.249 260.344 603.249ZM262.203 600.012C262.557 600.012 262.9 599.923 263.232 599.746C263.576 599.558 263.863 599.331 264.096 599.065V591.91C263.874 591.999 263.625 592.104 263.349 592.226C263.072 592.347 262.773 592.508 262.452 592.707C262.153 592.895 261.86 593.122 261.572 593.388C261.285 593.653 261.024 593.969 260.792 594.334C260.571 594.699 260.388 595.114 260.244 595.579C260.111 596.033 260.045 596.542 260.045 597.106C260.045 597.981 260.216 598.684 260.56 599.215C260.903 599.746 261.451 600.012 262.203 600.012ZM272.596 572.802H276.796V603H272.596V572.802ZM281.262 572.802H285.462V603H281.262V572.802ZM295.373 603.249C294.388 603.249 293.514 603.066 292.75 602.701C291.997 602.336 291.361 601.766 290.841 600.991C290.321 600.216 289.928 599.226 289.662 598.02C289.396 596.802 289.264 595.341 289.264 593.637V589.32C289.264 587.87 289.369 586.631 289.579 585.602C289.8 584.561 290.083 583.692 290.426 582.995C290.78 582.287 291.184 581.728 291.638 581.318C292.103 580.909 292.578 580.599 293.065 580.389C293.552 580.167 294.034 580.029 294.51 579.974C294.997 579.907 295.445 579.874 295.854 579.874C296.607 579.874 297.332 579.99 298.029 580.223C298.727 580.444 299.341 580.831 299.872 581.385C300.403 581.927 300.824 582.658 301.134 583.576C301.455 584.495 301.615 585.64 301.615 587.013C301.615 587.478 301.599 587.948 301.565 588.424C301.543 588.9 301.51 589.37 301.466 589.835C301.422 590.289 301.361 590.731 301.283 591.163C301.217 591.595 301.145 591.993 301.067 592.358H293.48V594.683C293.48 595.679 293.519 596.52 293.597 597.206C293.674 597.881 293.801 598.429 293.979 598.85C294.167 599.259 294.416 599.558 294.726 599.746C295.047 599.923 295.445 600.012 295.921 600.012C296.175 600.012 296.424 599.962 296.668 599.862C296.911 599.752 297.122 599.575 297.299 599.331C297.487 599.088 297.636 598.767 297.747 598.368C297.858 597.959 297.913 597.455 297.913 596.857V596.144H301.416V597.023C301.416 599.193 300.896 600.775 299.855 601.771C298.826 602.757 297.332 603.249 295.373 603.249ZM297.697 589.536C297.708 589.414 297.719 589.254 297.73 589.055C297.742 588.844 297.747 588.629 297.747 588.407C297.758 588.186 297.764 587.97 297.764 587.76C297.764 587.538 297.764 587.35 297.764 587.195C297.764 585.69 297.587 584.605 297.232 583.941C296.878 583.277 296.353 582.945 295.655 582.945C295.29 582.945 294.969 583.034 294.692 583.211C294.416 583.377 294.189 583.665 294.012 584.074C293.835 584.473 293.702 585.004 293.613 585.668C293.525 586.332 293.48 587.157 293.48 588.142V589.536H297.697ZM305.168 580.14H308.239L308.604 582.464C309.069 581.601 309.601 580.953 310.198 580.521C310.807 580.09 311.427 579.874 312.058 579.874C313.264 579.874 314.155 580.245 314.73 580.986C315.306 581.728 315.594 582.84 315.594 584.323C315.594 584.511 315.577 584.738 315.544 585.004C315.522 585.258 315.483 585.53 315.428 585.817C315.383 586.094 315.323 586.376 315.245 586.664C315.179 586.941 315.107 587.195 315.029 587.428H312.107V585.303C312.107 584.838 312.074 584.456 312.008 584.157C311.952 583.858 311.875 583.62 311.775 583.443C311.676 583.255 311.56 583.128 311.427 583.062C311.294 582.984 311.15 582.945 310.995 582.945C310.663 582.945 310.353 583.056 310.065 583.277C309.789 583.488 309.556 583.786 309.368 584.174V603H305.168V580.14ZM317.387 607.399C318.018 607.488 318.599 607.466 319.13 607.333C319.661 607.211 320.115 606.973 320.491 606.619C320.879 606.265 321.183 605.795 321.404 605.208C321.637 604.632 321.77 603.941 321.803 603.133L316.391 580.14H320.657L323.064 592.79L323.762 597.156H323.895L324.376 592.79L326.318 580.14H330.452L325.638 603.847C325.427 604.942 325.156 605.9 324.824 606.719C324.503 607.538 324.099 608.218 323.612 608.761C323.136 609.303 322.566 609.707 321.902 609.973C321.238 610.249 320.464 610.388 319.578 610.388C318.859 610.388 318.123 610.249 317.37 609.973L317.387 607.399Z" fill="#979799"/>
<path d="M359.5 420.5H255.5H254.5" stroke="#979799"/>
<path d="M368.5 514.5H220.5" stroke="#979799"/>
<path d="M359.5 603.5H239.5" stroke="#979799"/>
</g>
<defs>
<linearGradient id="paint0_linear" x1="180" y1="386" x2="180" y2="473" gradientUnits="userSpaceOnUse">
<stop stop-color="#3A393E"/>
<stop offset="1" stop-color="white" stop-opacity="0"/>
</linearGradient>
<linearGradient id="paint1_linear" x1="180" y1="219.901" x2="180" y2="332.186" gradientUnits="userSpaceOnUse">
<stop stop-color="#94E6DD" stop-opacity="0.5"/>
<stop offset="1" stop-color="white" stop-opacity="0"/>
</linearGradient>
<clipPath id="clip0">
<rect width="360" height="640" fill="white"/>
</clipPath>
</defs>
</svg>
